<svg width="24" height="24" viewBox="0 0 24 24" fill="none" xmlns="http://www.w3.org/2000/svg">
<path fill-rule="evenodd" clip-rule="evenodd" d="M6.21875 14.3125C8.13425 14.3125 9.6875 15.8654 9.6875 17.7812C9.6875 19.6967 8.13425 21.25 6.21875 21.25C4.30287 21.25 2.75 19.6967 2.75 17.7812C2.75 15.8658 4.30325 14.3125 6.21875 14.3125Z" stroke="#F58220" stroke-width="1.5" stroke-linecap="round" stroke-linejoin="round"/>
<path fill-rule="evenodd" clip-rule="evenodd" d="M17.7812 14.3125C19.6967 14.3125 21.25 15.8654 21.25 17.7812C21.25 19.6967 19.6967 21.25 17.7812 21.25C15.8654 21.25 14.3125 19.6967 14.3125 17.7812C14.3125 15.8658 15.8658 14.3125 17.7812 14.3125Z" stroke="#F58220" stroke-width="1.5" stroke-linecap="round" stroke-linejoin="round"/>
<path fill-rule="evenodd" clip-rule="evenodd" d="M12 2.75C13.9155 2.75 15.4688 4.30287 15.4688 6.21875C15.4688 8.13425 13.9155 9.6875 12 9.6875C10.0841 9.6875 8.53125 8.13425 8.53125 6.21875C8.53125 4.30325 10.0845 2.75 12 2.75Z" stroke="#F58220" stroke-width="1.5" stroke-linecap="round" stroke-linejoin="round"/>
</svg>
