<svg width="40" height="40" viewBox="0 0 40 40" fill="none" xmlns="http://www.w3.org/2000/svg">
<circle cx="20" cy="20" r="19.5" fill="white" stroke="#ECE8E5"/>
<path d="M28.8 20.208C28.8 19.558 28.7417 18.933 28.6333 18.333H20V21.883H24.9333C24.7167 23.0247 24.0667 23.9913 23.0917 24.6413V26.9497H26.0667C27.8 25.3497 28.8 22.9997 28.8 20.208Z" fill="#4285F4"/>
<path d="M20 29.1667C22.475 29.1667 24.55 28.35 26.0666 26.95L23.0916 24.6417C22.275 25.1917 21.2333 25.525 20 25.525C17.6166 25.525 15.5917 23.9167 14.8667 21.75H11.8167V24.1167C13.325 27.1083 16.4166 29.1667 20 29.1667Z" fill="#34A853"/>
<path d="M14.8667 21.7416C14.6833 21.1916 14.575 20.6083 14.575 19.9999C14.575 19.3916 14.6833 18.8083 14.8667 18.2583V15.8916H11.8167C11.1917 17.1249 10.8333 18.5166 10.8333 19.9999C10.8333 21.4833 11.1917 22.8749 11.8167 24.1083L14.1916 22.2583L14.8667 21.7416Z" fill="#FBBC05"/>
<path d="M20 14.483C21.35 14.483 22.55 14.9497 23.5083 15.8497L26.1333 13.2247C24.5417 11.7413 22.475 10.833 20 10.833C16.4166 10.833 13.325 12.8913 11.8167 15.8913L14.8667 18.258C15.5917 16.0913 17.6166 14.483 20 14.483Z" fill="#EA4335"/>
</svg>
