<svg width="15" height="17" viewBox="0 0 15 17" fill="none" xmlns="http://www.w3.org/2000/svg">
<path d="M5.18457 1.16797H9.67969V0H11.1797V1.16797H14.8574V16.2969H0V1.16797H3.68457V0H5.18457V1.16797ZM1.5 6.97754V14.7969H13.3574V6.97754H1.5ZM4.88965 12.7422H3.38184V11.2422H4.88965V12.7422ZM8.18945 12.7422H6.68164V11.2422H8.18945V12.7422ZM11.4824 12.7422H9.97461V11.2422H11.4824V12.7422ZM4.88965 9.86719H3.38184V8.36719H4.88965V9.86719ZM8.18945 9.86719H6.68164V8.36719H8.18945V9.86719ZM11.4824 9.86719H9.97461V8.36719H11.4824V9.86719ZM1.5 5.47754H13.3574V2.66797H11.1797V3.93457H9.67969V2.66797H5.18457V3.93457H3.68457V2.66797H1.5V5.47754Z" fill="white"/>
</svg>
