<svg width="24" height="24" viewBox="0 0 24 24" fill="none" xmlns="http://www.w3.org/2000/svg">
<path fill-rule="evenodd" clip-rule="evenodd" d="M12 2.75C17.108 2.75 21.25 6.891 21.25 12C21.25 17.108 17.108 21.25 12 21.25C6.891 21.25 2.75 17.108 2.75 12C2.75 6.891 6.891 2.75 12 2.75Z" stroke="black" stroke-width="1.5" stroke-linecap="round" stroke-linejoin="round"/>
<path d="M12 3C16.9706 3 21 7.02944 21 12C21 16.9706 16.9706 21 12 21C7.02944 21 3 16.9706 3 12C3 7.02944 7.02944 3 12 3ZM11.2451 15.0459V16.5459H12.7549V15.0459H11.2451ZM11.2451 13.373H12.7451V7.4541H11.2451V13.373Z" fill="black"/>
</svg>
