<svg width="101" height="17" viewBox="0 0 101 17" fill="none" xmlns="http://www.w3.org/2000/svg">
<g clip-path="url(#clip0_2031_958)">
<path d="M13.4045 10.453C13.1864 10.6644 13.0862 10.97 13.1359 11.2698L13.8844 15.4127C13.9476 15.7638 13.7994 16.1192 13.5055 16.3221C13.2175 16.5326 12.8344 16.5579 12.5203 16.3895L8.79089 14.4443C8.66121 14.3753 8.51722 14.3382 8.36986 14.334H8.14167C8.06252 14.3458 7.98505 14.3711 7.91431 14.4098L4.18404 16.3642C3.99963 16.4568 3.7908 16.4897 3.58618 16.4568C3.08769 16.3625 2.75508 15.8876 2.83676 15.3866L3.58618 11.2437C3.63586 10.9414 3.53566 10.6341 3.31757 10.4193L0.27693 7.47217C0.0226308 7.22545 -0.0657844 6.85494 0.0504184 6.52065C0.163253 6.1872 0.451234 5.94385 0.799 5.88911L4.98398 5.282C5.30228 5.24916 5.58184 5.05549 5.72499 4.76919L7.56907 0.988388C7.61286 0.904184 7.66928 0.826715 7.73748 0.761035L7.81327 0.702092C7.85284 0.658305 7.89832 0.622097 7.94884 0.592625L8.04062 0.558943L8.18377 0.5H8.53827C8.85488 0.53284 9.1336 0.722301 9.27928 1.00523L11.1478 4.76919C11.2825 5.04454 11.5444 5.23568 11.8467 5.282L16.0317 5.88911C16.3853 5.93964 16.6809 6.18383 16.7979 6.52065C16.9082 6.85831 16.8131 7.22881 16.5537 7.47217L13.4045 10.453Z" fill="#F58220"/>
<path d="M34.2472 10.953C34.0292 11.1644 33.929 11.47 33.9786 11.7698L34.7272 15.9127C34.7904 16.2638 34.6422 16.6192 34.3483 16.8221C34.0603 17.0326 33.6772 17.0579 33.3631 16.8895L29.6337 14.9443C29.504 14.8753 29.36 14.8382 29.2126 14.834H28.9844C28.9053 14.8458 28.8278 14.8711 28.7571 14.9098L25.0268 16.8642C24.8424 16.9568 24.6336 16.9897 24.429 16.9568C23.9305 16.8625 23.5979 16.3876 23.6795 15.8866L24.429 11.7437C24.4786 11.4414 24.3784 11.1341 24.1603 10.9193L21.1197 7.97217C20.8654 7.72545 20.777 7.35494 20.8932 7.02065C21.006 6.6872 21.294 6.44385 21.6418 6.38911L25.8268 5.782C26.1451 5.74916 26.4246 5.55549 26.5678 5.26919L28.4118 1.48839C28.4556 1.40418 28.5121 1.32672 28.5803 1.26104L28.656 1.20209C28.6956 1.15831 28.7411 1.1221 28.7916 1.09263L28.8834 1.05894L29.0265 1H29.381C29.6977 1.03284 29.9764 1.2223 30.122 1.50523L31.9906 5.26919C32.1253 5.54454 32.3872 5.73568 32.6895 5.782L36.8744 6.38911C37.2281 6.43964 37.5237 6.68383 37.6407 7.02065C37.751 7.35831 37.6559 7.72881 37.3965 7.97217L34.2472 10.953Z" fill="#F58220"/>
<path d="M96.7756 10.953C96.5575 11.1644 96.4573 11.47 96.507 11.7698L97.2555 15.9127C97.3187 16.2638 97.1705 16.6192 96.8766 16.8221C96.5886 17.0326 96.2055 17.0579 95.8914 16.8895L92.162 14.9443C92.0323 14.8753 91.8883 14.8382 91.741 14.834H91.5128C91.4336 14.8458 91.3561 14.8711 91.2854 14.9098L87.5551 16.8642C87.3707 16.9568 87.1619 16.9897 86.9573 16.9568C86.4588 16.8625 86.1262 16.3876 86.2079 15.8866L86.9573 11.7437C87.007 11.4414 86.9068 11.1341 86.6887 10.9193L83.648 7.97217C83.3937 7.72545 83.3053 7.35494 83.4215 7.02065C83.5343 6.6872 83.8223 6.44385 84.1701 6.38911L88.3551 5.782C88.6734 5.74916 88.9529 5.55549 89.0961 5.26919L90.9402 1.48839C90.984 1.40418 91.0404 1.32672 91.1086 1.26104L91.1844 1.20209C91.2239 1.15831 91.2694 1.1221 91.3199 1.09263L91.4117 1.05894L91.5549 1H91.9094C92.226 1.03284 92.5047 1.2223 92.6504 1.50523L94.5189 5.26919C94.6536 5.54454 94.9155 5.73568 95.2178 5.782L99.4028 6.38911C99.7564 6.43964 100.052 6.68383 100.169 7.02065C100.279 7.35831 100.184 7.72881 99.9248 7.97217L96.7756 10.953Z" fill="#F58220"/>
<path d="M55.09 10.953C54.8719 11.1644 54.7717 11.47 54.8214 11.7698L55.57 15.9127C55.6331 16.2638 55.4849 16.6192 55.1911 16.8221C54.9031 17.0326 54.52 17.0579 54.2059 16.8895L50.4764 14.9443C50.3468 14.8753 50.2028 14.8382 50.0554 14.834H49.8272C49.7481 14.8458 49.6706 14.8711 49.5999 14.9098L45.8696 16.8642C45.6852 16.9568 45.4763 16.9897 45.2717 16.9568C44.7732 16.8625 44.4406 16.3876 44.5223 15.8866L45.2717 11.7437C45.3214 11.4414 45.2212 11.1341 45.0031 10.9193L41.9625 7.97217C41.7082 7.72545 41.6198 7.35494 41.736 7.02065C41.8488 6.6872 42.1368 6.44385 42.4845 6.38911L46.6695 5.782C46.9878 5.74916 47.2674 5.55549 47.4105 5.26919L49.2546 1.48839C49.2984 1.40418 49.3548 1.32672 49.423 1.26104L49.4988 1.20209C49.5384 1.15831 49.5839 1.1221 49.6344 1.09263L49.7262 1.05894L49.8693 1H50.2238C50.5404 1.03284 50.8191 1.2223 50.9648 1.50523L52.8333 5.26919C52.9681 5.54454 53.2299 5.73568 53.5322 5.782L57.7172 6.38911C58.0709 6.43964 58.3664 6.68383 58.4835 7.02065C58.5938 7.35831 58.4986 7.72881 58.2393 7.97217L55.09 10.953Z" fill="#F58220"/>
<path d="M75.9328 10.953C75.7147 11.1644 75.6145 11.47 75.6642 11.7698L76.4128 15.9127C76.4759 16.2638 76.3277 16.6192 76.0338 16.8221C75.7459 17.0326 75.3627 17.0579 75.0486 16.8895L71.3192 14.9443C71.1895 14.8753 71.0455 14.8382 70.8982 14.834H70.67C70.5908 14.8458 70.5134 14.8711 70.4426 14.9098L66.7124 16.8642C66.5279 16.9568 66.3191 16.9897 66.1145 16.9568C65.616 16.8625 65.2834 16.3876 65.3651 15.8866L66.1145 11.7437C66.1642 11.4414 66.064 11.1341 65.8459 10.9193L62.8052 7.97217C62.551 7.72545 62.4625 7.35494 62.5787 7.02065C62.6916 6.6872 62.9796 6.44385 63.3273 6.38911L67.5123 5.782C67.8306 5.74916 68.1102 5.55549 68.2533 5.26919L70.0974 1.48839C70.1412 1.40418 70.1976 1.32672 70.2658 1.26104L70.3416 1.20209C70.3812 1.15831 70.4266 1.1221 70.4772 1.09263L70.5689 1.05894L70.7121 1H71.0666C71.3832 1.03284 71.6619 1.2223 71.8076 1.50523L73.6761 5.26919C73.8108 5.54454 74.0727 5.73568 74.375 5.782L78.56 6.38911C78.9136 6.43964 79.2092 6.68383 79.3263 7.02065C79.4366 7.35831 79.3414 7.72881 79.0821 7.97217L75.9328 10.953Z" fill="#F58220"/>
</g>
<defs>
<clipPath id="clip0_2031_958">
<rect width="101" height="17" fill="white"/>
</clipPath>
</defs>
</svg>
